<svg xmlns="http://www.w3.org/2000/svg" width="157" height="38" viewBox="0 0 157 38">
  <g id="그룹_4" data-name="그룹 4" transform="translate(-893 -599)">
    <path id="패스_6" data-name="패스 6" d="M217.545,154.043a2.27,2.27,0,0,0-2.633,2.1L211,180.35h8.466l4.562-26.307Z" transform="translate(804.486 451.982)" fill="#fff"/>
    <path id="패스_7" data-name="패스 7" d="M138.64,154.027h-7.387a3.311,3.311,0,0,0-2.538,1.07l-8.446,8.241,2.041-9.311h-6.694a2.22,2.22,0,0,0-2.577,2.052h0l-4.525,24.274h8.4l2.311-11.433,7.821,11.433H137.5l-10.413-14.876,11.551-11.451Z" transform="translate(784.486 451.978)" fill="#fff"/>
    <path id="패스_8" data-name="패스 8" d="M231.472,174.184l3.454-20.141h-6.48a2.251,2.251,0,0,0-2.62,2.008l-3.925,24.3h20.7l.79-6.167Z" transform="translate(806.614 451.982)" fill="#fff"/>
    <g id="그룹_3" data-name="그룹 3" transform="translate(921.773 599)">
      <path id="패스_9" data-name="패스 9" d="M212.013,163.427l3.368,18.085h8.974L218.838,155.2h-8.284a2.376,2.376,0,0,0-2.421,1.3L197.3,178.018l-7.49-6.781c3.4-.956,7.169-3.564,8.229-7.95,1.882-7.789-4.673-8.1-6.854-8.1H179.144c-1.56,0-1.836.338-2.164,1.758l-2.315,10.915c-5.905-3.859-19.3-11.678-28.733-11.8a10.008,10.008,0,0,0-5.782,1.361c-.252.159-.319.134-.353.126l.13-.274a13.67,13.67,0,0,1,6.576-4.322s5.565-1.946,13.037,2.6a79.981,79.981,0,0,1,10.106,7.216,18.966,18.966,0,0,0-37.057.712c4.606-4.136,13.439-5.6,26.955-.973,3.038,1.04,5.836,2.17,8.4,3.324a78.164,78.164,0,0,1,7.173,3.717,68.017,68.017,0,0,1,15.4,11.968h12.644Zm-28.729,4.861c.261-1.272,1.677-8.132,1.866-9.038h3.118s3.127-.189,2.009,4.036A6.987,6.987,0,0,1,183.284,168.288Z" transform="translate(-132.589 -148.18)" fill="#fff"/>
    </g>
    <path id="패스_10" data-name="패스 10" d="M181.6,172.209c-.678,2.95-1.391,6.669-1.391,6.669H171.4l2-9.462c-1.967-.645-3.345-1.033-3.975-1.193A18.939,18.939,0,0,1,137.9,178.444l-.021-.017a11.192,11.192,0,0,1-3.379-8.172,8.563,8.563,0,0,1,4.64-6.978c5.064-2.721,16.28-3.016,32.136,3.793a77.141,77.141,0,0,1,10.33,5.139Z" transform="translate(789.554 453.454)" fill="#fff"/>
  </g>
</svg>
