<?xml version="1.0" encoding="utf-8"?><svg width="106" height="97" viewBox="0 0 106 97" xmlns="http://www.w3.org/2000/svg" xmlns:xlink="http://www.w3.org/1999/xlink"><view id="blank_black" viewBox="0 0 28 26"/><svg width="28" height="26" viewBox="-4 -4 28 26" xmlns="http://www.w3.org/2000/svg"><path d="M15.556 8.502a.417.417 0 00-.712-.3l-.833.844a.425.425 0 00-.121.3v6.757a.209.209 0 01-.208.21H1.877a.21.21 0 01-.209-.21V4.15a.21.21 0 01.209-.212h10.762a.477.477 0 00.3-.123l.833-.844a.424.424 0 00-.3-.721h-11.8A1.678 1.678 0 00.005 3.938v12.375a1.677 1.677 0 001.667 1.688h12.222a1.677 1.677 0 001.667-1.687zm4.028-8.5h-4.722a.424.424 0 00-.294.721l1.673 1.694-9.452 9.569a.427.427 0 000 .6l.786.8a.414.414 0 00.591 0l9.451-9.57 1.672 1.694a.417.417 0 00.712-.3V.429A.419.419 0 0019.583 0z"/></svg><view id="blank_blue" viewBox="28 0 28 26"/><svg width="28" height="26" viewBox="-4 -4 28 26" x="28" xmlns="http://www.w3.org/2000/svg"><path d="M15.556 8.502a.417.417 0 00-.712-.3l-.833.844a.425.425 0 00-.121.3v6.757a.209.209 0 01-.208.21H1.877a.21.21 0 01-.209-.21V4.15a.21.21 0 01.209-.212h10.762a.477.477 0 00.3-.123l.833-.844a.424.424 0 00-.3-.721h-11.8A1.678 1.678 0 00.005 3.938v12.375a1.677 1.677 0 001.667 1.688h12.222a1.677 1.677 0 001.667-1.687zm4.028-8.5h-4.722a.424.424 0 00-.294.721l1.673 1.694-9.452 9.569a.427.427 0 000 .6l.786.8a.414.414 0 00.591 0l9.451-9.57 1.672 1.694a.417.417 0 00.712-.3V.429A.419.419 0 0019.583 0z" fill="#0054a6"/></svg><view id="blank_white" viewBox="0 26 28 26"/><svg width="28" height="26" viewBox="-4 -4 28 26" y="26" xmlns="http://www.w3.org/2000/svg"><path d="M15.556 8.502a.417.417 0 00-.712-.3l-.833.844a.425.425 0 00-.121.3v6.757a.209.209 0 01-.208.21H1.877a.21.21 0 01-.209-.21V4.15a.21.21 0 01.209-.212h10.762a.477.477 0 00.3-.123l.833-.844a.424.424 0 00-.3-.721h-11.8A1.678 1.678 0 00.005 3.938v12.375a1.677 1.677 0 001.667 1.688h12.222a1.677 1.677 0 001.667-1.687zm4.028-8.5h-4.722a.424.424 0 00-.294.721l1.673 1.694-9.452 9.569a.427.427 0 000 .6l.786.8a.414.414 0 00.591 0l9.451-9.57 1.672 1.694a.417.417 0 00.712-.3V.429A.419.419 0 0019.583 0z" fill="#fff"/></svg><view id="down_black" viewBox="0 52 22 24"/><svg width="22" height="24" viewBox="-4 -4 22 24" y="52" xmlns="http://www.w3.org/2000/svg"><path d="M7 12.457L1.745 6.999l1.253-1.25 3.119 3.25v-9h1.766V9.02l3.121-3.25 1.252 1.25zm-7 1.771v1.771h14v-1.771z"/></svg><view id="down_blue" viewBox="22 52 22 24"/><svg width="22" height="24" viewBox="-4 -4 22 24" x="22" y="52" xmlns="http://www.w3.org/2000/svg"><path d="M7 12.457L1.745 6.999l1.253-1.25 3.119 3.25v-9h1.766V9.02l3.121-3.25 1.252 1.25zm-7 1.771v1.771h14v-1.771z" fill="#0054a6"/></svg><view id="down_white" viewBox="44 52 22 24"/><svg width="22" height="24" viewBox="-4 -4 22 24" x="44" y="52" xmlns="http://www.w3.org/2000/svg"><path d="M7 12.457L1.745 6.999l1.253-1.25 3.119 3.25v-9h1.766V9.02l3.121-3.25 1.252 1.25zm-7 1.771v1.771h14v-1.771z" fill="#fff"/></svg><view id="move_black" viewBox="66 52 16 21"/><svg width="16" height="21" viewBox="-4 -4 16 21" x="66" y="52" xmlns="http://www.w3.org/2000/svg"><path d="M0 1.952v9.1a1.837 1.837 0 003.152 1.378l4.307-4.547a2.028 2.028 0 000-2.758L3.152.577A1.837 1.837 0 000 1.952zM6.153 6.5l-4.307 4.55v-9.1z"/></svg><view id="move_blue" viewBox="0 76 16 21"/><svg width="16" height="21" viewBox="-4 -4 16 21" y="76" xmlns="http://www.w3.org/2000/svg"><path d="M0 1.952v9.1a1.837 1.837 0 003.152 1.378l4.307-4.547a2.028 2.028 0 000-2.758L3.152.577A1.837 1.837 0 000 1.952zM6.153 6.5l-4.307 4.55v-9.1z" fill="#0054a6"/></svg><view id="move_white" viewBox="16 76 16 21"/><svg width="16" height="21" viewBox="-4 -4 16 21" x="16" y="76" xmlns="http://www.w3.org/2000/svg"><path d="M0 1.952v9.1a1.837 1.837 0 003.152 1.378l4.307-4.547a2.028 2.028 0 000-2.758L3.152.577A1.837 1.837 0 000 1.952zM6.153 6.5l-4.307 4.55v-9.1z" fill="#fff"/></svg><view id="pen_black" viewBox="28 26 26 26"/><svg width="26" height="26" viewBox="-4 -4 26 26" x="28" y="26" xmlns="http://www.w3.org/2000/svg"><path d="M17.341 1.978L16.023.66a2.249 2.249 0 00-3.182 0l-2.619 2.619L9 4.5.451 13.049l-.446 4.015a.844.844 0 00.836.937.906.906 0 00.094-.006l4.013-.442 8.551-8.552 1.222-1.222 2.619-2.618a2.251 2.251 0 00.001-3.183zM4.175 15.939l-2.376.263.265-2.381 8.129-8.128 1.09-1.091 2.115 2.114-1.091 1.091zM16.148 3.967l-1.557 1.556-2.114-2.114 1.557-1.556a.561.561 0 01.8 0l1.318 1.318a.561.561 0 01-.004.796z"/></svg><view id="pen_blue" viewBox="56 0 26 26"/><svg width="26" height="26" viewBox="-4 -4 26 26" x="56" xmlns="http://www.w3.org/2000/svg"><path d="M17.341 1.978L16.023.66a2.249 2.249 0 00-3.182 0l-2.619 2.619L9 4.5.451 13.049l-.446 4.015a.844.844 0 00.836.937.906.906 0 00.094-.006l4.013-.442 8.551-8.552 1.222-1.222 2.619-2.618a2.251 2.251 0 00.001-3.183zM4.175 15.939l-2.376.263.265-2.381 8.129-8.128 1.09-1.091 2.115 2.114-1.091 1.091zM16.148 3.967l-1.557 1.556-2.114-2.114 1.557-1.556a.561.561 0 01.8 0l1.318 1.318a.561.561 0 01-.004.796z" fill="#0054a6"/></svg><view id="pen_white" viewBox="56 26 26 26"/><svg width="26" height="26" viewBox="-4 -4 26 26" x="56" y="26" xmlns="http://www.w3.org/2000/svg"><path d="M17.341 1.978L16.023.66a2.249 2.249 0 00-3.182 0l-2.619 2.619L9 4.5.451 13.049l-.446 4.015a.844.844 0 00.836.937.906.906 0 00.094-.006l4.013-.442 8.551-8.552 1.222-1.222 2.619-2.618a2.251 2.251 0 00.001-3.183zM4.175 15.939l-2.376.263.265-2.381 8.129-8.128 1.09-1.091 2.115 2.114-1.091 1.091zM16.148 3.967l-1.557 1.556-2.114-2.114 1.557-1.556a.561.561 0 01.8 0l1.318 1.318a.561.561 0 01-.004.796z" fill="#fff"/></svg><view id="preview_black" viewBox="82 0 24 24"/><svg width="24" height="24" viewBox="-4 -4 24 24" x="82" xmlns="http://www.w3.org/2000/svg"><path d="M14.484 15.739l-2.844-2.844a7.216 7.216 0 111.257-1.257l2.843 2.844a.888.888 0 11-1.256 1.257zM1.775 7.211a5.431 5.431 0 009.2 3.908.9.9 0 01.067-.075.893.893 0 01.075-.067A5.432 5.432 0 101.774 7.21z"/></svg><view id="preview_blue" viewBox="82 24 24 24"/><svg width="24" height="24" viewBox="-4 -4 24 24" x="82" y="24" xmlns="http://www.w3.org/2000/svg"><path d="M14.484 15.739l-2.844-2.844a7.216 7.216 0 111.257-1.257l2.843 2.844a.888.888 0 11-1.256 1.257zM1.775 7.211a5.431 5.431 0 009.2 3.908.9.9 0 01.067-.075.893.893 0 01.075-.067A5.432 5.432 0 101.774 7.21z" fill="#0054a6"/></svg><view id="preview_white" viewBox="82 48 24 24"/><svg width="24" height="24" viewBox="-4 -4 24 24" x="82" y="48" xmlns="http://www.w3.org/2000/svg"><path d="M14.484 15.739l-2.844-2.844a7.216 7.216 0 111.257-1.257l2.843 2.844a.888.888 0 11-1.256 1.257zM1.775 7.211a5.431 5.431 0 009.2 3.908.9.9 0 01.067-.075.893.893 0 01.075-.067A5.432 5.432 0 101.774 7.21z" fill="#fff"/></svg></svg>