<?xml version="1.0" encoding="utf-8"?>
<!-- Generator: Adobe Illustrator 25.0.1, SVG Export Plug-In . SVG Version: 6.00 Build 0)  -->
<svg version="1.1" id="레이어_1" xmlns="http://www.w3.org/2000/svg" xmlns:xlink="http://www.w3.org/1999/xlink" x="0px"
	 y="0px" viewBox="0 0 16 16" style="enable-background:new 0 0 16 16;" xml:space="preserve">
<path d="M10.2,16c-0.3,0-0.6-0.3-0.6-0.6v-5.2c0-0.2-0.1-0.3-0.3-0.3c0,0,0,0,0,0H6.7c-0.2,0-0.3,0.1-0.3,0.3l0,0v5.2
	c0,0.3-0.3,0.6-0.6,0.6H3.2c-1.3,0-2.3-1-2.3-2.3V7.2C0.8,7.2,0.7,7.3,0.6,7.3c-0.2,0-0.3-0.1-0.4-0.2C0.1,7,0,6.8,0,6.7
	c0-0.2,0.1-0.3,0.2-0.4l7.4-6.1C7.7,0.1,7.9,0,8,0c0.1,0,0.3,0,0.4,0.1l7.4,6.1C15.9,6.4,16,6.5,16,6.7c0,0.1,0,0.3-0.1,0.4
	c-0.1,0.1-0.3,0.2-0.4,0.2c-0.1,0-0.2,0-0.3-0.1v6.5c0,1.3-1,2.3-2.3,2.3c0,0,0,0,0,0H10.2z M9.3,8.7c0.8,0,1.4,0.6,1.4,1.4v4.7h2.1
	c0.6,0,1.2-0.5,1.2-1.2c0,0,0,0,0,0V6.2L8,1.3L2,6.2v7.4c0,0.7,0.5,1.2,1.2,1.2h2.1v-4.7c0-0.8,0.6-1.4,1.4-1.4H9.3z"/>
</svg>
