<?xml version="1.0" encoding="utf-8"?>
<!-- Generator: Adobe Illustrator 25.0.1, SVG Export Plug-In . SVG Version: 6.00 Build 0)  -->
<svg version="1.1" id="레이어_1" xmlns="http://www.w3.org/2000/svg" xmlns:xlink="http://www.w3.org/1999/xlink" x="0px"
	 y="0px" viewBox="0 0 18 18" style="enable-background:new 0 0 18 18;" xml:space="preserve">
<g transform="translate(-1199.727 -864.017)">
	<path d="M1215.3,869.8h-0.9v-5.1c0-0.4-0.3-0.7-0.7-0.7c0,0,0,0,0,0h-9.9c-0.2,0-0.4,0.1-0.5,0.2c-0.1,0.1-0.2,0.3-0.2,0.5v5.1
		h-0.9c-1.3,0-2.4,1.1-2.4,2.4c0,0,0,0,0,0v4.1c0,1.3,1.1,2.4,2.4,2.4l0,0h0.9v2.6c0,0.4,0.3,0.7,0.7,0.7c0,0,0,0,0,0h9.9
		c0.4,0,0.7-0.3,0.7-0.7v-2.6h0.9c1.3,0,2.4-1.1,2.4-2.4v-4.1C1217.7,870.9,1216.6,869.8,1215.3,869.8z M1204.5,865.5h8.5v4.4h-8.5
		V865.5z M1213,880.6h-8.5v-5.2h8.5V880.6z M1216.3,876.3c0,0.5-0.4,0.9-0.9,0.9h-0.9v-2.6c0-0.4-0.3-0.7-0.7-0.7c0,0,0,0,0,0h-9.9
		c-0.4,0-0.7,0.3-0.7,0.7l0,0v2.6h-0.9c-0.5,0-0.9-0.4-0.9-0.9v-4.1c0-0.5,0.4-0.9,0.9-0.9h1.6h0h0h9.9h0h0h1.6
		c0.5,0,0.9,0.4,0.9,0.9L1216.3,876.3z"/>
	<path d="M1203.8,882c-0.2,0-0.4-0.1-0.5-0.2l0,0c-0.1-0.1-0.2-0.3-0.2-0.5l0,0l0.1-2.5h-0.9c-1.3,0-2.4-1.1-2.4-2.4l0,0v-4.1
		c0-1.3,1.1-2.4,2.4-2.4l0,0l0.9,0.1v-5.1c0-0.2,0.1-0.4,0.2-0.5l0,0c0.1-0.1,0.3-0.2,0.5-0.2h9.9c0.2,0,0.4,0.1,0.5,0.2l0,0
		c0.1,0.1,0.2,0.3,0.2,0.5l0,0l-0.1,5h0.9v0.1l-1-0.1v-5.1c0-0.2-0.1-0.3-0.2-0.5l0,0c-0.1-0.1-0.3-0.2-0.5-0.2h-9.9
		c-0.2,0-0.3,0.1-0.5,0.2l0,0c-0.1,0.1-0.2,0.3-0.2,0.5l0,0l-0.1,5.1h-0.9c-1.3,0-2.3,1-2.3,2.3c0,0,0,0,0,0l0,0v4.1
		c0,1.3,1,2.3,2.3,2.3l0,0l0,0l1,0.1v2.6c0,0.2,0.1,0.3,0.2,0.5l0,0c0.1,0.1,0.3,0.2,0.5,0.2h9.9c0.2,0,0.3-0.1,0.5-0.2l0,0
		c0.1-0.1,0.2-0.3,0.2-0.5l0,0l0.1-2.6h0.9c1.3,0,2.3-1,2.3-2.3c0,0,0,0,0,0l0,0v-4.1c0-1.3-1-2.3-2.3-2.3l0,0l0,0v-0.1
		c1.3,0,2.4,1.1,2.4,2.4l0,0v4.1c0,1.3-1.1,2.4-2.4,2.4l0,0l-0.9-0.1v2.6c0,0.2-0.1,0.4-0.2,0.5l0,0c-0.1,0.1-0.3,0.2-0.5,0.2
		L1203.8,882L1203.8,882z M1204.4,880.5l0.1-5.2l8.5,0.1v5.2h-0.1v0.1L1204.4,880.5L1204.4,880.5z M1204.5,880.5h8.4l0.1-5.1
		l-8.4-0.1L1204.5,880.5L1204.5,880.5z M1214.3,877.3v-2.6c0-0.2-0.1-0.3-0.2-0.5l0,0c-0.1-0.1-0.3-0.2-0.5-0.2h-9.9
		c-0.2,0-0.3,0.1-0.5,0.2l0,0c-0.1,0.1-0.2,0.3-0.2,0.5l0,0l-0.1,2.6h-0.9c-0.5,0-1-0.4-1-1l0,0v-4.1c0-0.5,0.4-1,1-1c0,0,0,0,0,0
		l0,0h1.6h0h9.9h0h1.6c0.6,0,1,0.4,1,1l0,0v4.1c0,0.5-0.5,1-1,1l0,0L1214.3,877.3L1214.3,877.3z M1201.3,872.2v4.1
		c0,0.5,0.4,0.9,0.9,0.9l0,0l0.9,0.1v-2.6c0-0.2,0.1-0.4,0.2-0.5l0,0c0.1-0.1,0.3-0.2,0.5-0.2h9.9c0.2,0,0.4,0.1,0.5,0.2l0,0
		c0.1,0.1,0.2,0.3,0.2,0.5l0,0l-0.1,2.5h0.9c0.5,0,0.9-0.4,0.9-0.9l0,0v-4.1c0-0.5-0.4-0.9-0.9-0.9h-1.6h0l0,0h-9.9h0l0,0h-1.6
		C1201.6,871.3,1201.3,871.7,1201.3,872.2L1201.3,872.2z M1204.4,869.8v-4.4h0.1v-0.1l8.5,0.1l-0.1,4.4L1204.4,869.8z M1204.5,869.8
		l8.4,0.1l0.1-4.3h-8.4L1204.5,869.8z"/>
</g>
</svg>
