<svg xmlns="http://www.w3.org/2000/svg" width="18" height="18" viewBox="0 0 18 18"><g transform="translate(-1254.763 -1277.641)"><path d="M1271.944,1290.356l-2.324-2.326a1.945,1.945,0,0,0-2.754,0l-1.147,1.146-4.49-4.489,1.152-1.15a1.951,1.951,0,0,0,0-2.752l-2.326-2.324a1.941,1.941,0,0,0-2.754,0l-1.01,1.012a3.74,3.74,0,0,0-1.051,2.053l-.174,1.087a3.582,3.582,0,0,0-.05.6,3.748,3.748,0,0,0,1.1,2.65l8.431,8.432a3.745,3.745,0,0,0,2.647,1.1,3.888,3.888,0,0,0,.59-.047l-.113-.76.122.76,1.088-.174a3.772,3.772,0,0,0,2.052-1.051l1.013-1.014a1.946,1.946,0,0,0,0-2.752Zm-1.09,1.664-1.013,1.011a2.189,2.189,0,0,1-1.208.618l-1.078.174a2.775,2.775,0,0,1-.363.031,2.229,2.229,0,0,1-1.559-.646l-8.428-8.432a2.208,2.208,0,0,1-.65-1.561,2.171,2.171,0,0,1,.03-.347l.177-1.092a2.2,2.2,0,0,1,.615-1.208l1.017-1.017a.406.406,0,0,1,.284-.12.415.415,0,0,1,.286.12l2.328,2.326a.409.409,0,0,1,0,.577l-1.694,1.691v1.09l5.577,5.579h1.09l1.694-1.7a.4.4,0,0,1,.286-.118.391.391,0,0,1,.285.118l2.327,2.329a.4.4,0,0,1,.117.284A.411.411,0,0,1,1270.854,1292.02Z" fill="#000"/><path d="M1264.361,1294.473l-8.426-8.426a4.009,4.009,0,0,1-1.173-2.83h0a4.026,4.026,0,0,1,.053-.637h0l.175-1.089a3.984,3.984,0,0,1,1.121-2.191h0l1.009-1.01a2.191,2.191,0,0,1,1.559-.651h0a2.207,2.207,0,0,1,1.556.646h0l2.324,2.322a2.209,2.209,0,0,1,.643,1.558h0a2.209,2.209,0,0,1-.643,1.556h0l-.967.968,4.122,4.122.962-.961a2.159,2.159,0,0,1,1.534-.65h0a.083.083,0,0,1,.03,0h0a2.2,2.2,0,0,1,1.551.646h0l2.322,2.325-.181.182-.182.179-2.323-2.324a1.693,1.693,0,0,0-.936-.476h0v.082l-.3-.1a1.673,1.673,0,0,0-1.153.5h0l-1.327,1.33-4.848-4.851,1.332-1.33a1.7,1.7,0,0,0,.494-1.191h0a1.7,1.7,0,0,0-.494-1.2h0l-2.325-2.321a1.68,1.68,0,0,0-1.193-.5h0a1.68,1.68,0,0,0-1.2.5h0l-1.01,1.011a3.5,3.5,0,0,0-.979,1.913h0l-.173,1.087a3.557,3.557,0,0,0-.048.556h0a3.491,3.491,0,0,0,1.025,2.466h0l8.423,8.425a3.484,3.484,0,0,0,2.464,1.021h0c.1,0,.2-.005.3-.013h0l-.066-.44-.008-.056h0v0l.507-.077.081.5.834-.131a3.519,3.519,0,0,0,1.91-.979h0l1.013-1.015a1.678,1.678,0,0,0,.494-1.183h0l0-.005,0-.032h0a1.674,1.674,0,0,0-.494-1.167h0l.182-.179.181-.182a2.179,2.179,0,0,1,.642,1.542h0l0,.012v.107l-.005.005a2.2,2.2,0,0,1-.639,1.447h0l-1.014,1.011a4.028,4.028,0,0,1-2.189,1.122h0l-1.344.215,0-.01a3.621,3.621,0,0,1-.382.019h0a4.006,4.006,0,0,1-2.827-1.168Zm1.087-1.091-8.423-8.425a2.467,2.467,0,0,1-.722-1.74h0a2.5,2.5,0,0,1,.032-.39h0l.178-1.09a2.451,2.451,0,0,1,.685-1.348h0l1.015-1.016a.67.67,0,0,1,.476-.195h0a.676.676,0,0,1,.459.195h0l2.332,2.328a.7.7,0,0,1,.189.473h0a.69.69,0,0,1-.2.464h0l-1.618,1.613v.877l5.426,5.425h.874l1.621-1.625a.671.671,0,0,1,.466-.19h0a.656.656,0,0,1,.466.195h0l2.327,2.328a.657.657,0,0,1,.192.464h0a.683.683,0,0,1-.192.467h0l-.185-.179.181.183-1.014,1.01a2.438,2.438,0,0,1-1.348.69h0l-1.077.173a3.041,3.041,0,0,1-.4.035h0a2.476,2.476,0,0,1-1.738-.721Zm-6.871-13.646-1.015,1.016a1.95,1.95,0,0,0-.545,1.068h0l-.178,1.09a2.065,2.065,0,0,0-.026.3h0a1.946,1.946,0,0,0,.574,1.38h0l8.421,8.424a1.957,1.957,0,0,0,1.372.573h0a2.166,2.166,0,0,0,.328-.029h0l1.076-.173a1.926,1.926,0,0,0,1.067-.547h0l1.01-1.005a.151.151,0,0,0,.049-.112h0a.14.14,0,0,0-.043-.1h0l-2.327-2.327a.138.138,0,0,0-.1-.044h0a.139.139,0,0,0-.106.044h0l-1.769,1.771h-1.3l-5.721-5.725v-1.3l1.765-1.762a.171.171,0,0,0,.049-.1h0a.17.17,0,0,0-.044-.114h0l-2.325-2.322a.135.135,0,0,0-.1-.048h0a.157.157,0,0,0-.112.046Z" fill="#4d5980"/></g></svg>