<svg xmlns="http://www.w3.org/2000/svg" width="16" height="19" viewBox="0 0 16 19"><g transform="translate(-1221.125 -1277.875)"><path d="M1232.325,1289.157c-1.025,0-1.518.593-3.2.593s-2.172-.593-3.2-.593a4.9,4.9,0,0,0-4.8,4.986v.951a1.749,1.749,0,0,0,1.715,1.781h12.571a1.749,1.749,0,0,0,1.714-1.781v-.951A4.9,4.9,0,0,0,1232.325,1289.157Zm3.086,5.938H1222.84v-.951a3.153,3.153,0,0,1,3.085-3.206,8.912,8.912,0,0,0,6.4,0,3.154,3.154,0,0,1,3.086,3.206Zm-6.286-6.532a5.348,5.348,0,1,0-5.142-5.343A5.248,5.248,0,0,0,1229.125,1288.563Zm0-8.906a3.565,3.565,0,1,1-3.429,3.563A3.5,3.5,0,0,1,1229.125,1279.657Z" transform="translate(0)" fill="#000"/></g></svg>