<svg xmlns="http://www.w3.org/2000/svg" width="22" height="18" viewBox="0 0 22 18"><g transform="translate(-1183.674 -1275.899)"><path d="M1204.652,1278.552h-10.583l-1.857-2.135-.59-.266H1184.7l-.772.749v2.4h0v13.6l.772.75h19.954l.772-.75v-13.6Zm-19.184,13.6v-12.1h18.411v12.1Zm5.792-14.5.787.9h-6.579v-.9Z" fill="#000"/><path d="M1184.6,1293.9l-.922-.9v-16.207l.92-.893h7.087l.05.025.639.29,1.819,2.09h10.457v.249l-.182.176.182-.176v-.249h.107l.922.89V1293l-.922.9Zm-.407-16.9,0,2.3v0l0,13.492.623.6h19.728l.62-.6V1279.4l-.62-.6h-10.592l-1.9-2.183-.488-.221h-6.753l-.623.605Zm1.286,15.4v-.25h0v.25h-.258v-12.6h18.912l0,12.6Zm18.141-.5,0-11.6h-9.9l-7.979,0v11.6Zm-18.4-13.1V1277.4h6.046v0h.115l1.227,1.406Zm.513-.5h5.764l-.351-.406h-5.413v.406Z" fill="#000"/><path d="M1198.424,1284.079l-2.4-.247-.972-2.2h-1.373l-.974,2.2-2.4.247-.423,1.3,1.8,1.606-.508,2.354,1.109.807,2.082-1.211,2.084,1.211,1.109-.807-.507-2.352,1.8-1.608Zm-2.7,2.083-.233.717.242,1.121-.992-.576h-.754l-.99.576.24-1.121-.232-.717-.856-.765,1.143-.118.609-.441.463-1.049.463,1.049.611.441,1.141.118Z" transform="translate(0.307 -0.017)" fill="#000"/></g></svg>