<svg xmlns="http://www.w3.org/2000/svg" width="17" height="17.002" viewBox="0 0 17 17.002"><g transform="translate(-1380.499 -1276.5)"><g transform="translate(0 -0.682)"><path d="M1380.5,1285.683a8.5,8.5,0,0,1,8.5-8.5h0v1.547a6.959,6.959,0,0,0-6.953,6.954h0a6.961,6.961,0,0,0,6.953,6.954h0a6.964,6.964,0,0,0,6.955-6.954h0a6.961,6.961,0,0,0-6.955-6.954h0v-1.545a8.5,8.5,0,0,1,8.5,8.5h0a8.5,8.5,0,0,1-8.5,8.5h0a8.5,8.5,0,0,1-8.5-8.5Z"/><path d="M1388.228,1285.683v-3.091a.772.772,0,0,1,.771-.774h0a.774.774,0,0,1,.774.774h0v3.091a.774.774,0,0,1-.774.773h0a.772.772,0,0,1-.771-.773Z"/><path d="M1389,1289.546a.772.772,0,0,1-.772-.774h0A.772.772,0,0,1,1389,1288h.008a.772.772,0,0,1,.772.772h0a.772.772,0,0,1-.772.774H1389Z"/></g></g></svg>